<?xml version="1.0" encoding="UTF-8"?>
<!DOCTYPE svg PUBLIC "-//W3C//DTD SVG 1.1//EN" "http://www.w3.org/Graphics/SVG/1.1/DTD/svg11.dtd" [
  <!ENTITY fill_color "#FFFFFF">
  <!ENTITY stroke_color "#010101">
]>
<svg
   xmlns="http://www.w3.org/2000/svg"
   version="1.1"
   width="55"
   height="55"
   viewBox="0 0 55 55"
   id="svg3077"
   xml:space="preserve"><g
   transform="translate(-1.8841022,0.62803401)"
   id="g4358"><path
     d="m 29.46875,13.375 c -0.815242,0.04446 -1.845779,0.329544 -2.6875,1.03125 -0.582359,0.485487 -0.96063,1.13256 -1.25,1.8125 C 25.4806,16.16846 25.42652,16.111788 25.375,16.0625 24.894475,15.602798 24.54935,15.096294 23.21875,14.75 c -1.509827,-0.392938 -3.068667,-0.248532 -4.5,0.625 -1.431333,0.873532 -2.532063,2.961387 -2.21875,4.875 0.01112,0.06792 0.05003,0.09099 0.0625,0.15625 -0.05168,-0.0045 -0.07185,-0.02771 -0.125,-0.03125 -1.882994,-0.125595 -3.777037,0.550613 -4.9375,2.09375 -1.160463,1.543137 -1.147284,3.960593 -0.03125,5.5625 0.242536,0.348126 0.462643,0.51411 0.6875,0.75 -1.145816,0.357657 -2.1991979,0.948773 -2.8125,2 C 8.371815,32.44719 8.6788147,34.151122 9.25,35.375 c 0.7082828,1.517636 2.062524,2.176302 2.96875,2.53125 0.906226,0.354948 1.670013,0.54906 2.46875,0.84375 1.597474,0.58938 3.300585,1.409619 5.25,3.9375 2.879829,5.468522 8.476036,9.5 15.375,9.5 4.415725,0 8.395465,-2.021906 10.78125,-5.46875 2.385785,-3.446844 3.263691,-8.086002 2.6875,-13.34375 L 48.75,33.3125 l 0,-0.09375 C 48.7422,33.172 48.73679,31.699817 49,30.375 c 0.263209,-1.324817 0.78697,-2.680131 1.15625,-3.1875 1.445937,-1.986651 0.783007,-4.454497 -0.375,-5.84375 -1.158007,-1.389253 -3.253248,-2.397169 -5.46875,-1.6875 -1.705765,0.546387 -2.746063,1.60992 -3.6875,2.6875 -0.584993,0.66959 -1.020454,1.378095 -1.5,2.09375 -0.202027,-0.480325 -0.156618,-0.470441 -0.375,-0.96875 -0.772301,-1.762257 -1.60958,-3.609523 -2.5,-5.1875 -0.89042,-1.577977 -1.449476,-2.877274 -3.3125,-4 -0.834246,-0.502748 -1.838267,-0.995172 -3.46875,-0.90625 z m 0.15625,3 c 0.661659,-0.03608 1.357554,0.232247 1.75,0.46875 2.609915,1.57283 7.3125,14.46875 7.3125,14.46875 0,0 3.40881,-7.812327 6.53125,-8.8125 1.73464,-0.555639 3.47586,1.608399 2.53125,2.90625 -1.63858,2.251316 -2.24171,6.674989 -1.96875,8.3125 1.03819,9.473491 -3.468579,14.90625 -10.625,14.90625 -5.969596,0 -10.49996,-2.929808 -12.84375,-7.78125 -4.62742,-6.000552 -9.448205,-4.831118 -10.34375,-6.75 -0.559697,-1.199262 -0.262001,-2.737636 2.21875,-2.71875 1.663179,0.01266 6.084172,2.036287 8.25,3.5 0.754776,-2.409255 -7.440802,-6.966069 -8.53125,-8.53125 -0.995035,-1.42823 0.157819,-3.114551 2.34375,-2.96875 2.687103,0.179229 10.343641,8.857247 11.25,8.78125 0.219231,-3.541402 -7.649323,-9.882704 -8.0625,-12.40625 -0.277591,-1.695436 1.467419,-2.49261 3,-2.09375 C 24.173563,18.108067 30.22263,28.201965 32.5,28.9375 31.906011,22.884402 27.505822,20.33946 28.09375,17.78125 28.333442,16.738296 28.963341,16.411085 29.625,16.375 z"
     id="path3978"
     style="font-size:medium;font-style:normal;font-variant:normal;font-weight:normal;font-stretch:normal;text-indent:0;text-align:start;text-decoration:none;line-height:normal;letter-spacing:normal;word-spacing:normal;text-transform:none;direction:ltr;block-progression:tb;writing-mode:lr-tb;text-anchor:start;baseline-shift:baseline;color:&stroke_color;;fill:&stroke_color;;fill-opacity:1;fill-rule:nonzero;stroke:none;stroke-width:6;marker:none;visibility:visible;display:inline;overflow:visible;enable-background:accumulate;font-family:Sans;-inkscape-font-specification:Sans" /><path
     d="m 45.791438,33.715333 c 1.03819,9.473491 -3.48504,14.923992 -10.641461,14.923992 -5.969596,0 -10.503821,-2.934989 -12.847611,-7.786431 -4.62742,-6.000552 -9.436042,-4.833789 -10.331587,-6.752671 -0.559697,-1.199262 -0.274595,-2.744137 2.206156,-2.725251 1.663179,0.01266 6.089377,2.044612 8.255205,3.508325 0.754776,-2.409255 -7.425063,-6.989191 -8.515511,-8.554372 -0.995035,-1.42823 0.142053,-3.090872 2.327984,-2.945071 2.687103,0.179229 10.359645,8.850838 11.266004,8.774841 0.219231,-3.541402 -7.652145,-9.878168 -8.065322,-12.401714 -0.277591,-1.695436 1.471397,-2.497498 3.003978,-2.098638 1.736063,0.451817 7.763052,10.552252 10.040422,11.287787 -0.593989,-6.053098 -4.969863,-8.592397 -4.381935,-11.150607 0.479384,-2.085908 2.493884,-1.423797 3.278776,-0.950792 2.609915,1.57283 7.294072,14.452543 7.294072,14.452543 0,0 3.43128,-7.788198 6.55372,-8.788371 1.73464,-0.555639 3.44833,1.603052 2.50372,2.900903 -1.63858,2.251316 -2.21957,6.668016 -1.94661,8.305527 z"
     id="path3961"
     style="fill:&fill_color;;stroke:none" /></g><rect
   width="5.8892398"
   height="5.8892398"
   x="-3.4560666"
   y="9.7231483"
   transform="matrix(0.70710678,-0.70710678,0.70710678,0.70710678,0,0)"
   id="rect3993"
   style="fill:&fill_color;;fill-opacity:1;stroke:&stroke_color;;stroke-width:2;stroke-miterlimit:4;stroke-opacity:1;stroke-dasharray:none" /><rect
   width="3.4493883"
   height="3.4493883"
   x="15.525595"
   y="27.478752"
   transform="matrix(0.70710678,-0.70710678,0.70710678,0.70710678,0,0)"
   id="rect4020"
   style="fill:&fill_color;;fill-opacity:1;stroke:&stroke_color;;stroke-width:1.5;stroke-miterlimit:4;stroke-opacity:1;stroke-dasharray:none" /><rect
   width="4.2645798"
   height="4.2645798"
   x="6.5390964"
   y="13.377147"
   transform="matrix(0.70710678,-0.70710678,0.70710678,0.70710678,0,0)"
   id="rect4033"
   style="fill:&fill_color;;fill-opacity:1;stroke:&stroke_color;;stroke-width:2;stroke-miterlimit:4;stroke-opacity:1;stroke-dasharray:none" /><rect
   width="3.4493883"
   height="3.4493883"
   x="12.771518"
   y="20.540684"
   transform="matrix(0.70710678,-0.70710678,0.70710678,0.70710678,0,0)"
   id="rect4099"
   style="fill:&fill_color;;fill-opacity:1;stroke:&stroke_color;;stroke-width:1.5;stroke-miterlimit:4;stroke-opacity:1;stroke-dasharray:none" /><rect
   width="3.4493883"
   height="3.4493883"
   x="-11.035795"
   y="14.284143"
   transform="matrix(0.70710678,-0.70710678,0.70710678,0.70710678,0,0)"
   id="rect4356"
   style="fill:&fill_color;;fill-opacity:1;stroke:&stroke_color;;stroke-width:1.5;stroke-miterlimit:4;stroke-opacity:1;stroke-dasharray:none" /></svg>
